<svg xmlns="http://www.w3.org/2000/svg" width="82" height="84" fill="none"><g fill-rule="evenodd" clip-path="url(#a)" clip-rule="evenodd"><path fill="url(#b)" d="M57.41 10.13h9.46c8.4 0 15.23 6.83 15.23 15.24v33.24c0 8.41-6.82 15.24-15.23 15.24h-.75c-4.33-.68-6.2-1.98-7.65-3.07l-12.02-9.89a1.7 1.7 0 0 0-2.13 0l-3.9 3.22-11-9.05a1.69 1.69 0 0 0-2.13 0L12 68.5c-3.07 2.5-5.1 2.04-6.43 1.9A15.21 15.21 0 0 1 0 58.6V25.37c0-8.4 6.83-15.24 15.24-15.24h9.43l-.02.04-.31.93-.1.32-.43 1.9-.06.33-.19 1.9-.02.52v.19l.01.87.04.5.1.8.14.73.16.66.21.72.54 1.52.18.46.94 1.98.33.61 1.09 1.87.41.67 1.52 2.24.22.3 1.98 2.56.63.8 2.26 2.63.46.5 1.86 2 .73.76 1.22 1.21-.24.2-.16.14a14.89 14.89 0 0 0-1.67 1.87 8.32 8.32 0 0 0-.91 1.66c-.2.51-.32 1.05-.36 1.6v.48a5.64 5.64 0 0 0 1.49 3.65A5.52 5.52 0 0 0 39 51.72c.87.3 1.78.4 2.7.31a6.07 6.07 0 0 0 3.06-1.2 5.44 5.44 0 0 0 2.12-4.48l-.02-.4a5.54 5.54 0 0 0-.66-2.12 8.5 8.5 0 0 0-1.02-1.52c-.4-.48-.84-.94-1.3-1.37l-.34-.28.56-.55 2.4-2.5.82-.9 1.29-1.45.84-.98 1.2-1.46.8-1.01 1.19-1.6.6-.81.84-1.27.71-1.09 1.34-2.32.76-1.52.02-.05.59-1.41.02-.06.63-1.96.06-.29.27-1.56.06-.42.01-.26.02-.98v-.18l-.05-.88-.07-.68-.3-1.96-.02-.08-.4-1.45-.14-.4-.18-.45Zm4.5 41.46a3.66 3.66 0 0 0-3.61 3.6 3.66 3.66 0 0 0 3.6 3.62 3.67 3.67 0 0 0 3.62-3.61 3.66 3.66 0 0 0-3.61-3.61Z"/><path fill="#000" d="m35.64 72.54-.64.54c-.59.48-1.32.75-2.09.76H15.24c-3.53 0-6.94-1.21-9.66-3.45 1.32.14 3.35.6 6.43-1.9l15.28-13.43a1.7 1.7 0 0 1 2.12 0l11 9.04 3.9-3.21a1.7 1.7 0 0 1 2.13 0l12.02 9.88c1.45 1.1 3.33 2.4 7.65 3.07h-7.99c-.7 0-1.4-.24-1.96-.65l-.14-.11-.6-.5-.15-.15-9.2-7.62a1 1 0 0 0-1.27 0s.02.03-9.04 7.62l-.12.11ZM61.9 51.58a3.68 3.68 0 0 0-3.6 3.61 3.68 3.68 0 0 0 3.6 3.61 3.68 3.68 0 0 0 3.61-3.6 3.68 3.68 0 0 0-3.6-3.62ZM38.57 40.65l-1.22-1.21-.74-.76-1.85-2-.47-.5-2.25-2.64-.64-.8-1.97-2.56-.22-.3-1.52-2.23-.41-.67-1.1-1.87-.32-.61-.94-1.99-.18-.45-.54-1.52-.2-.72-.17-.66-.13-.72-.1-.8-.05-.51-.02-.88v-.18l.03-.52.19-1.9.06-.34.42-1.9.1-.31.32-.93.1-.24.5-1.11.36-.66.49-.8.48-.73.35-.45.4-.48.44-.49.38-.38.92-.8.67-.55.05-.04.8-.54.62-.4 1.2-.63.06-.03 1.7-.7.15-.06 1.51-.45.64-.14.86-.17.58-.09.87-.1.6-.06L40.57 0h.46l.88.02.23.01 1.28.1 1.69.24.2.05 1.66.41.49.15.54.19.67.25.52.22.77.36.48.25.88.51.32.2 1.2.87.33.3.83.75.04.04.7.75.25.28.82 1.1.17.26.65 1.1.2.38.37.83.39.96.13.4.4 1.45.02.08.3 1.96.07.68.05.88v.18l-.01.98-.02.25-.05.43-.27 1.56-.07.29-.63 1.96-.02.05-.58 1.42-.03.05-.76 1.52-1.33 2.32-.71 1.08-.85 1.27-.6.83-1.19 1.58-.8 1.02-1.2 1.45-.84.98-1.28 1.45-.83.9-2.4 2.5-.55.56.33.28a14.6 14.6 0 0 1 1.66 1.82 8.52 8.52 0 0 1 .95 1.68c.2.48.33 1 .37 1.51l.02.4a5.44 5.44 0 0 1-2.96 5.02 6.4 6.4 0 0 1-6.06-.19 5.52 5.52 0 0 1-2.63-4.59v-.47a5.47 5.47 0 0 1 .62-2.2 8.38 8.38 0 0 1 1.16-1.7c.37-.44.76-.85 1.17-1.23l.15-.14.25-.2Z"/><path fill="#fff" d="m35 73.08 9.8-8.27a1 1 0 0 1 1.28 0l9.94 8.27c.6.5 1.36.76 2.14.76H32.88c.77 0 1.52-.27 2.12-.76Zm6.1-29.51.1.03.08.05.08.07a11.43 11.43 0 0 1 .95 1 6.2 6.2 0 0 1 .6.86l.11.26c.06.15.1.3.12.47v.3a1.73 1.73 0 0 1-.82 1.34c-.3.18-.64.3-1 .33h-.37l-.31-.02a2.4 2.4 0 0 1-.84-.3l-.25-.18a1.68 1.68 0 0 1-.59-1.15v-.28l.03-.24c.04-.16.1-.33.18-.48.1-.2.22-.38.34-.56a8.6 8.6 0 0 1 1.19-1.31l.12-.1c.08-.06.08-.06.18-.1h.1Zm-.62-40.15h.04v33.66l-.08-.15a94.1 94.1 0 0 1-3.1-6.27 67.23 67.23 0 0 1-2.1-5.25c-.5-1.42-.92-2.87-1.26-4.33a23.31 23.31 0 0 1-.55-3.54 29.5 29.5 0 0 1 .24-4.94 21.16 21.16 0 0 1 .64-2.88 14.96 14.96 0 0 1 .99-2.37 8.18 8.18 0 0 1 2.68-3.05 5.6 5.6 0 0 1 2.5-.88Zm4.37.08 2.26.65c1.05.39 2.06.9 2.99 1.52a11.98 11.98 0 0 1 4.45 5.6 14.07 14.07 0 0 1 .9 5.9c-.06.73-.2 1.45-.4 2.14a24.3 24.3 0 0 1-1.52 3.7 39.05 39.05 0 0 1-2.56 4.2 65.43 65.43 0 0 1-3.68 4.8 91 91 0 0 1-4.42 4.9 93.68 93.68 0 0 0 4.33-9.35c.48-1.26.92-2.54 1.31-3.83.3-.97.55-1.95.76-2.94.18-.85.32-1.7.41-2.57.07-.72.1-1.44.08-2.16a22.67 22.67 0 0 0-.94-6.57c-.2-.65-.43-1.29-.71-1.9a10.11 10.11 0 0 0-2.84-3.78l-.42-.3Z"/></g><defs><radialGradient id="b" cx="0" cy="0" r="1" gradientTransform="matrix(59 0 0 59 43.6 41.71)" gradientUnits="userSpaceOnUse"><stop stop-color="#BA7BF0"/><stop offset=".45" stop-color="#996BEC"/><stop offset="1" stop-color="#5046E4"/></radialGradient><clipPath id="a"><path fill="#fff" d="M0 0h82v84H0z"/></clipPath></defs></svg>
