<svg xmlns="http://www.w3.org/2000/svg" fill="none" viewBox="0 0 500 500"><path fill="#000" d="M359.64 322.73V177.27h39.49v113.64h58.8v31.82h-98.29ZM228.4 322.73V177.27h62.78c10.8 0 20.24 2.13 28.33 6.4a46.4 46.4 0 0 1 18.9 17.96c4.5 7.72 6.74 16.74 6.74 27.06 0 10.42-2.32 19.44-6.96 27.06a45.72 45.72 0 0 1-19.39 17.62c-8.28 4.12-17.97 6.18-29.05 6.18h-37.5v-30.69h29.55c4.64 0 8.6-.8 11.86-2.41 3.32-1.66 5.85-4 7.6-7.03 1.8-3.03 2.7-6.6 2.7-10.73 0-4.16-.9-7.72-2.7-10.65a16.93 16.93 0 0 0-7.6-6.82c-3.27-1.6-7.22-2.41-11.86-2.41h-13.92v113.92h-39.49ZM42.06 177.27h49.15l33.8 82.39h1.71l33.8-82.39h49.16v145.46h-38.64v-84.1h-1.14l-32.38 82.96h-23.3l-32.38-83.52H80.7v84.66H42.06V177.27Z"/></svg>
