<svg width="132" height="132" viewBox="0 0 132 132" fill="none" xmlns="http://www.w3.org/2000/svg">
<path d="M65.727 24.6776C42.666 24.7376 23.988 43.2386 23.988 66.0386C23.988 88.8986 42.666 107.4 65.727 107.4C88.788 107.4 107.463 88.8986 107.463 66.0386C107.463 43.1966 88.785 24.6776 65.727 24.6776Z" fill="#E33030"/>
<path d="M65.724 19.4966C39.798 19.4966 18.735 40.3586 18.735 66.0386C18.735 91.7186 39.795 112.578 65.724 112.578C91.65 112.578 112.71 91.7186 112.71 66.0386C112.71 40.3586 91.65 19.4966 65.724 19.4966ZM65.724 107.157C42.804 107.157 24.228 88.7576 24.228 66.0566C24.228 43.4186 42.804 25.0166 65.724 24.9566C88.644 24.9566 107.22 43.3586 107.22 66.0566C107.199 88.7576 88.641 107.157 65.724 107.157Z" fill="#383838"/>
<path d="M76.425 106.059C74.829 104.178 72.648 101.058 71.214 97.7576C73.233 93.2786 72.99 88.3766 71.559 83.0186C69.558 75.5186 65.439 67.1366 62.835 58.6586C61.017 59.3186 62.634 62.3966 60.432 63.3566C60.855 60.7166 61.218 58.3166 61.179 57.8576C60.756 54.0566 58.839 47.7776 56.049 41.4776C54.4556 37.824 52.9749 34.1223 51.609 30.3776C49.224 23.9966 47.328 16.8386 44.481 11.2976C42.177 6.83663 39.351 3.39863 35.031 2.37863C33.333 1.97663 32.526 1.95863 32.181 2.03663C31.98 2.07863 30.93 2.65763 30.669 2.81663C27.255 5.03663 25.719 7.61663 24.531 10.5986C23.136 14.0366 23.076 19.2986 23.319 23.1986C23.559 27.0986 23.619 28.3166 23.925 30.8786C24.489 35.7776 25.398 40.6586 26.61 45.4586C30.204 60.0566 36.807 75.3986 45.933 83.3786C47.025 84.3386 48.843 85.1366 50.034 85.8566C49.446 87.4976 46.944 83.6966 45.834 85.5776C47.649 87.1976 49.467 88.8386 51.306 90.5786C50.799 91.4966 49.407 89.6366 48.639 89.5766C48.174 89.5376 48.033 89.9186 48.033 89.9186C49.305 91.4966 50.679 92.7776 52.134 93.8186C54.315 95.3786 56.715 96.6176 59.301 97.4576C61.26 98.0966 63.261 98.6966 65.115 98.8376C65.883 98.8976 66.651 98.8976 67.275 98.8976L75.879 106.257L76.425 106.059Z" fill="#383838"/>
<path d="M38.685 33.0386C38.643 32.6786 38.685 32.5376 38.847 32.4776C39.006 32.4176 39.291 32.6786 39.33 32.7176C39.816 33.1166 39.936 33.2186 40.341 33.5966C40.743 33.9776 41.229 34.2566 41.673 34.5776C45.024 36.9986 49.125 38.0966 50.373 41.8766C52.233 47.4986 46.173 55.0376 48.114 60.9566C48.156 61.0586 48.033 61.1576 47.934 61.0976C44.217 58.6166 38.625 54.7976 36.18 50.8766C35.94 49.3166 36.321 47.7176 36.684 45.9386C37.473 42.0776 38.685 39.7166 38.784 34.6766C38.784 34.4576 38.766 34.2566 38.766 34.0376C38.784 33.9176 38.706 33.2966 38.685 33.0386Z" fill="#E33030"/>
<path d="M33.738 44.6966C34.302 42.7376 34.647 42.1166 35.07 40.2386C35.454 38.5586 35.676 36.7376 35.94 34.8176C36.102 33.6566 36.12 32.3186 36.483 31.0376C36.603 30.5786 36.948 30.0386 37.233 29.8376C37.575 29.6186 38.04 29.5766 38.565 29.6576C41.067 29.9786 45.207 33.2186 48.315 35.9366C49.164 36.6776 50.679 38.0786 50.76 38.0186C50.802 37.9766 50.64 37.6376 50.133 36.9386C49.7368 36.4009 49.3731 35.8399 49.044 35.2586C48.7003 34.5476 48.429 33.8039 48.234 33.0386C46.443 26.8376 47.916 20.8766 35.736 23.8376C23.016 26.8766 28.59 42.2786 29.943 45.8576C30.084 46.1966 30.303 46.7186 30.486 47.0576C30.588 47.2766 30.708 47.4566 30.81 47.6366C31.821 49.1966 32.526 49.8566 32.67 49.8176C32.73 49.7966 32.808 49.0376 32.991 48.0176C33.192 46.7966 33.375 45.9386 33.738 44.6966ZM61.905 89.3576C61.8032 89.1188 61.6891 88.8855 61.563 88.6586C60.813 87.1166 59.625 86.0576 58.818 84.5366C57.846 82.7186 57.261 80.5976 55.302 80.0186C54.312 79.7186 53.385 79.9376 52.374 80.2766C50.802 80.7986 49.953 81.7166 48.681 81.6566C47.9558 81.5956 47.2647 81.3223 46.6938 80.871C46.123 80.4196 45.6977 79.8102 45.471 79.1186C47.751 79.9586 53.283 76.6376 55.626 75.2966C57.99 73.9586 63.804 70.4186 63.684 68.4176C65.118 69.6986 65.055 71.5166 64.692 72.1976C64.248 73.0376 63.177 73.5776 62.067 74.2976C60.876 75.0776 60.048 75.6176 59.301 77.0966C58.071 79.5566 61.2 85.4576 61.926 88.7186C61.926 88.7186 61.986 88.9766 62.028 89.2376C62.067 89.4566 62.109 89.5976 62.067 89.6186C62.049 89.6366 61.968 89.4776 61.905 89.3576ZM52.941 47.4566C52.779 53.6186 49.551 59.1176 50.517 65.6366C50.5233 65.6651 50.5212 65.6948 50.5109 65.722C50.5006 65.7493 50.4825 65.773 50.459 65.7902C50.4354 65.8074 50.4074 65.8173 50.3782 65.8188C50.3491 65.8203 50.3202 65.8133 50.295 65.7986C42.561 61.8776 44.784 62.8766 36.363 55.1186C36.321 55.0976 36.282 55.1186 36.282 55.1576C37.614 64.3976 37.896 79.1366 48.984 74.5166C55.365 71.8376 57.846 69.3986 59.304 66.6986C59.784 65.7776 59.745 64.8986 59.34 62.9186C58.92 60.8186 57.99 58.2986 56.94 55.9166C55.566 52.7786 53.505 50.0786 53.001 47.4776C53.001 47.3966 52.941 47.4176 52.941 47.4566ZM32.667 7.15762C32.688 7.17862 32.688 7.21762 32.688 7.25662C32.709 7.37662 32.748 7.47862 32.769 7.61662C33.153 9.25762 34.203 10.1966 34.647 11.8166C35.13 13.6166 34.566 15.8186 36.321 16.7786C37.857 17.5976 39.774 16.8566 41.652 16.6376C43.914 16.3766 45.387 16.5986 45.63 19.7366C44.097 18.1376 37.938 20.3186 34.929 20.9786C31.92 21.6386 25.803 22.3376 25.479 24.6776C24.429 21.8186 25.239 20.9576 25.821 20.4386C26.409 19.9166 27.135 19.8386 27.72 19.6766C29.376 19.2386 30.75 19.2986 32.082 18.3386C33.879 17.0576 33.234 12.4976 32.808 9.05662C32.748 8.53762 32.688 8.23762 32.667 7.83862C32.646 7.67662 32.667 7.45762 32.667 7.33762C32.6469 7.27931 32.6469 7.21594 32.667 7.15762C32.646 7.15762 32.646 7.15762 32.667 7.15762Z" fill="#FEEBCC"/>
<path d="M47.976 43.5986C47.388 41.8586 45.894 40.9976 44.298 40.0976C43.41 39.5966 42.522 39.0986 41.715 38.3966C41.4691 38.1738 41.2329 37.9406 41.007 37.6976C40.9041 37.5832 40.781 37.4887 40.644 37.4186C40.542 37.3766 40.464 37.4366 40.404 37.4966C40.341 37.5776 40.32 37.6766 40.362 38.3186C40.38 38.7176 40.362 38.9966 40.362 39.1766C40.362 40.5776 39.957 42.4166 39.552 44.1986C39.171 45.9386 38.766 47.7566 38.745 49.1966V49.2776L38.787 49.3376C39.534 50.5766 40.767 51.7976 42.117 52.9166C43.47 54.0386 45.489 55.4186 46.116 55.7966C46.38 55.9586 46.416 56.0186 46.5 55.9586C46.602 55.8986 46.458 55.5566 46.44 55.1576C46.26 53.0966 46.68 51.5966 47.328 49.5176C47.934 47.5166 48.6 45.4166 47.973 43.5986H47.976Z" fill="#FEEBCC"/>
<path d="M40.221 48.9386C41.25 50.4176 43.086 51.9176 44.823 53.1566C44.865 53.1776 44.904 53.1566 44.904 53.1176C45.084 51.7586 45.39 50.3966 45.873 49.1186C46.479 47.2586 47.025 45.4376 46.599 44.1176C46.239 42.9176 45.087 42.2576 43.611 41.3966C43.0128 41.0521 42.4274 40.6859 41.856 40.2986C41.814 40.2776 41.775 40.2986 41.775 40.3376C41.595 41.7566 41.349 43.1786 40.926 44.6576C40.584 46.0376 40.341 47.4986 40.221 48.9386Z" fill="#383838"/>
</svg>
