<svg width="574" height="574" viewBox="0 0 574 574" fill="none" xmlns="http://www.w3.org/2000/svg">
<path fill-rule="evenodd" clip-rule="evenodd" d="M287 560C437.774 560 560 437.774 560 287C560 136.226 437.774 14 287 14C136.226 14 14 136.226 14 287C14 437.774 136.226 560 287 560ZM470.579 317.322C461.475 373.38 431.455 416.31 383.034 446.713C319.358 485.15 234.848 483.291 171.393 433.581L141.578 463.523C227.86 536.637 366.835 536.342 453.316 443.704C542.14 348.557 535.77 203.882 439.267 116.594C346.365 32.5637 200.989 39.0914 115.824 135.038C32.2454 229.199 46.835 360.123 111.462 433.172L215.318 329.302C221.411 335.403 227.512 341.514 233.62 347.631C248.624 362.657 263.665 377.721 278.71 392.781C288.204 402.285 297.329 402.316 306.766 392.881C330.503 369.148 354.238 345.412 377.974 321.677C386.841 312.81 395.708 303.943 404.575 295.076C414.088 285.563 414.103 276.489 404.61 266.994C400.78 263.164 396.95 259.334 393.121 255.503C366.94 229.317 340.76 203.132 314.519 177.008C313.677 176.17 312.484 175.686 311.242 175.181C310.648 174.94 310.042 174.694 309.458 174.403C311.441 172.427 313.249 170.618 314.939 168.926C318.661 165.201 321.814 162.045 325.016 158.939C327.457 156.572 329.053 154.053 327.624 150.56C326.233 147.163 323.548 146.138 320.038 146.15C309.324 146.187 298.61 146.185 287.897 146.183C279.303 146.181 270.709 146.179 262.115 146.198C256.281 146.21 253.892 148.484 253.867 154.335C253.817 166.115 253.822 177.896 253.828 189.677C253.831 197.205 253.834 204.732 253.823 212.26C253.818 215.666 254.584 219.255 258.096 219.759C260.743 220.139 264.36 218.997 266.415 217.223C270.023 214.109 273.291 210.601 276.38 207.285C277.585 205.992 278.762 204.729 279.921 203.529L357.46 281.079L291.755 346.792L213.768 268.746L117.56 365.054C101.114 331.771 96.2497 289.354 104.353 249.024C121.49 163.738 198.293 100.478 285.225 100.613C341.446 100.701 389.072 121.451 426.325 163.63C465.175 207.615 479.958 259.565 470.579 317.322Z" fill="#2758D2"/>
</svg>
