<svg xmlns="http://www.w3.org/2000/svg" fill="none" viewBox="0 0 110 110"><path fill="#F37321" d="M57.7 26.2c.3.4.4.9-.2 1.3-.6.5-1.5 0-2.3 0-3.8-.8-15.2-2.8-19.7 1-2.4 2-1.6 4.6-4.1 6.8-2.6 2.1-5 .8-7.5 2.8-4.5 3.8-4.6 15.4-4.5 19.2 0 .8.2 1.8-.4 2.3-.5.5-1 .3-1.3 0-1.2-1.5-8.3-26 3.9-36.1 12.1-10.1 34.9 1.3 36 2.7h.1Zm-40.6-3A5 5 0 1 0 17 13a5 5 0 0 0 0 10.1Z"/><path fill="#00A389" d="M69.4 79.6c-.5 0-.9-.1-1-.8-.1-.9.7-1.4 1.3-2 2.5-2.8 10.1-11.6 9.2-17.4-.4-3.1-3.1-3.8-3.6-7-.6-3.4 1.8-4.8 1.3-8-.9-5.7-10.8-11.7-14-13.7-.8-.4-1.7-.7-1.9-1.5 0-.7.3-1 .8-1 1.8-.3 26.4 6.2 28.9 21.8 2.4 15.6-19.1 29.3-21 29.6Zm28-25.6a5 5 0 1 0 0-10.1 5 5 0 0 0 0 10.1Z"/><path fill="#005CAB" d="M18.2 63.7c.2-.4.5-.7 1.2-.5.8.3.8 1.4 1 2.1 1.2 3.7 5 16.9 16.7 21.5 11.7 4.6 23.4-2.6 26.8-4.4.7-.4 1.4-1.1 2.2-.8.6.2.7.7.5 1.1-.7 1.8-18.7 19.8-33.4 14-14.7-5.8-15.7-31.2-15-33Zm21.5 21a5 5 0 1 0 0-10 5 5 0 0 0 0 10Z"/></svg>
